<?xml version="1.0" encoding="utf-8"?>
<!-- Generator: Adobe Illustrator 25.4.1, SVG Export Plug-In . SVG Version: 6.00 Build 0)  -->
<svg version="1.1" baseProfile="basic" id="レイヤー_1"
	 xmlns="http://www.w3.org/2000/svg" xmlns:xlink="http://www.w3.org/1999/xlink" x="0px" y="0px" viewBox="0 0 841.89 595.28"
	 xml:space="preserve">
<style type="text/css">
	.st0{fill:#71696C;}
	.st1{fill:#4C4043;}
	.st2{fill:#E4D6CF;}
	.st3{fill:#FCC800;}
	.st4{fill:#D1C5BE;}
	.st5{fill:#D9AD00;}
	.st6{fill:#655D60;}
	.st7{fill:#FFFFFF;}
</style>
<g>
	<path class="st0" d="M280.12,289.26c-0.32-2.73-0.9-5.38-1.72-7.92c-1.94-5.42-4.78-10.41-8.34-14.79
		c-4.27-5.25-10.17-9.52-16.57-12.16c-0.58-0.24-1.17-0.47-1.76-0.68c-1.18-0.43-2.37-0.79-3.57-1.1c-1.2-0.31-2.4-0.56-3.61-0.74
		c-0.64-0.1-1.28-0.18-1.92-0.25c-1.29-0.14-2.58-0.22-3.87-0.24c-3.23-0.06-6.47,0.25-9.64,0.92c-0.09,0.02-0.19,0.04-0.28,0.06
		c-4.28,0.94-9.02,3.03-11.97,6.45c-1.94,2.25-3.12,5.18-3.12,8.38c0,3.62,1.5,6.9,3.91,9.23c-6.56,0.36-12.63,2.58-17.67,6.15
		c-0.01,0-0.01,0.01-0.01,0.01c-0.3,0.21-0.6,0.43-0.89,0.65c-0.08,0.07-0.15,0.13-0.24,0.19c-0.01,0.01-0.01,0.01-0.02,0.02
		c-2.49,1.88-3.84,5.13-3.35,8.22c0.35,2.24,1.65,4.31,3.5,5.61c1.25,0.88,2.8,1.35,3.9,2.43c0.97,0.96,1.63,2.24,1.83,3.59
		c0.24,1.68-1.01,3.67-1.88,5.08c0.7-0.67,2.44-1.41,3.31-1.77c0.86-0.36,1.79-0.68,2.72-0.84c2.03-0.35,4.01-0.43,5.86-1.44
		c1.74-0.96,3.1-2.56,3.91-4.37c1.03-2.3,1.21-5.03,0.2-7.33c-0.36-0.81-0.85-1.55-1.22-2.35c-1.81-3.88-0.52-9.2,3.26-11.47
		c0.03-0.02,0.05-0.03,0.08-0.05c1.46-0.97,3.21-1.53,5.1-1.53c0.46,0,0.91,0.03,1.35,0.1c0.12,0.03,0.24,0.06,0.36,0.09
		c0.01,0,0.01,0,0.02,0c0.57,0.1,1.12,0.26,1.65,0.46c0.06,0.02,0.11,0.03,0.17,0.05c0.34,0.1,0.67,0.21,1,0.33
		c0.5,0.17,1,0.36,1.49,0.56c2.7,1.08,5.23,2.51,7.53,4.22c3.71,2.75,6.83,6.25,9.16,10.26c-0.32-0.63-0.49-1.34-0.49-2.1
		c0-2.09,1.44-3.98,3.45-4.54c2.5-0.69,5.56,0.47,7.33,2.02c0,0,11.23,8.26,9.81,28.24c-0.16,2.31-0.5,4.78-1.04,7.4
		c0.63-0.62,1.24-1.26,1.83-1.92c0.63-0.71,1.25-1.44,1.83-2.2c1.17-1.51,2.24-3.09,3.21-4.75c1.2-2.07,2.23-4.26,3.08-6.54
		c1.68-4.56,2.6-9.48,2.6-14.63C280.41,292.56,280.31,290.9,280.12,289.26z"/>
	<g>
		<path class="st0" d="M351.76,339.02V326.8h4.37c2.1,0,3.94,0.81,3.94,3.18c0,1.27-0.86,2.3-2.07,2.64v0.03
			c1.57,0.24,2.44,1.64,2.44,3.17c0,1.42-0.93,2.49-2.22,2.96c-0.63,0.24-1.37,0.25-2.1,0.24H351.76z M353.45,331.95h2.1
			c1.61,0.05,2.74-0.24,2.74-1.85c0-1.61-1.13-1.9-2.74-1.85h-2.1V331.95z M353.45,337.57h2.83c1.3,0,2.39-0.58,2.39-2.08
			c0-1.51-1.08-2.08-2.39-2.08h-2.83V337.57z"/>
		<path class="st0" d="M367.99,330.52h1.61v8.5h-1.57v-1.25h-0.03c-0.64,1.07-1.73,1.51-2.91,1.51c-1.78,0-2.79-1.35-2.79-3.06
			v-5.69h1.61v5.03c0,1.47,0.34,2.56,1.88,2.56c0.66,0,1.56-0.34,1.9-1.22c0.3-0.8,0.32-1.8,0.32-2V330.52z"/>
		<path class="st0" d="M374.99,330.27c1.61,0,3.42,0.68,3.3,2.61h-1.69c0.07-1.08-0.76-1.44-1.69-1.44c-0.86,0-1.56,0.41-1.56,1.35
			c0,0.95,1.46,1.02,2.07,1.2c1.44,0.47,3.1,0.64,3.1,2.56c0,2.08-2.03,2.73-3.78,2.73c-1.78,0-3.27-0.81-3.25-2.78h1.69
			c0.03,1.05,0.75,1.61,1.73,1.61c0.95,0,1.91-0.37,1.91-1.47c0-1.9-5.16-0.47-5.16-3.79C371.66,331.07,373.45,330.27,374.99,330.27
			z"/>
		<path class="st0" d="M380.62,326.8h1.91v1.74h-1.91V326.8z M380.78,339.02v-8.5h1.61v8.5H380.78z"/>
		<path class="st0" d="M387.02,331.78h0.03c0.54-1.07,1.73-1.51,2.57-1.51c0.59,0,3.22,0.15,3.22,2.88v5.88h-1.61v-5.35
			c0-1.4-0.59-2.17-1.95-2.17c0,0-0.88-0.05-1.56,0.63c-0.24,0.24-0.68,0.61-0.68,2.27v4.62h-1.61v-8.5h1.57V331.78z"/>
		<path class="st0" d="M396.82,335.08c-0.12,1.49,0.49,3.03,2.13,3.03c1.25,0,1.88-0.49,2.07-1.73h1.69
			c-0.25,1.93-1.74,2.9-3.78,2.9c-2.73,0-3.81-1.93-3.81-4.44c0-2.49,1.25-4.57,3.95-4.57c2.54,0.05,3.74,1.66,3.74,4.01v0.8H396.82
			z M401.12,333.96c0.03-1.42-0.61-2.52-2.17-2.52c-1.34,0-2.13,1.13-2.13,2.52H401.12z"/>
		<path class="st0" d="M407.9,330.27c1.61,0,3.42,0.68,3.3,2.61h-1.69c0.07-1.08-0.76-1.44-1.69-1.44c-0.86,0-1.56,0.41-1.56,1.35
			c0,0.95,1.46,1.02,2.07,1.2c1.44,0.47,3.1,0.64,3.1,2.56c0,2.08-2.03,2.73-3.78,2.73c-1.78,0-3.27-0.81-3.25-2.78h1.69
			c0.03,1.05,0.75,1.61,1.73,1.61c0.95,0,1.91-0.37,1.91-1.47c0-1.9-5.16-0.47-5.16-3.79C404.56,331.07,406.36,330.27,407.9,330.27z
			"/>
		<path class="st0" d="M416.36,330.27c1.61,0,3.42,0.68,3.3,2.61h-1.69c0.07-1.08-0.76-1.44-1.69-1.44c-0.86,0-1.56,0.41-1.56,1.35
			c0,0.95,1.46,1.02,2.07,1.2c1.44,0.47,3.1,0.64,3.1,2.56c0,2.08-2.03,2.73-3.78,2.73c-1.78,0-3.27-0.81-3.25-2.78h1.69
			c0.03,1.05,0.75,1.61,1.73,1.61c0.95,0,1.91-0.37,1.91-1.47c0-1.9-5.16-0.47-5.16-3.79C413.02,331.07,414.82,330.27,416.36,330.27
			z"/>
		<path class="st0" d="M428.83,339.02l5.15-12.22h1.81l4.94,12.22h-1.85l-1.32-3.18h-5.67l-1.32,3.18H428.83z M432.47,334.38h4.55
			l-2.22-5.91L432.47,334.38z"/>
		<path class="st0" d="M442.35,332.05c-0.02-0.51-0.05-1.02-0.08-1.52h1.64l0.05,1.35h0.03c0.49-1.22,1.56-1.61,2.9-1.61
			c2.39,0,3.57,2.2,3.57,4.5c0,2.18-1.02,4.5-4.08,4.5c-0.69,0-1.81-0.34-2.37-1.22h-0.05v4.22h-1.61V332.05z M446.36,331.44
			c-1.83,0-2.4,1.79-2.4,3.34c0,1.59,0.46,3.34,2.25,3.34c1.96,0,2.56-1.74,2.56-3.34C448.76,333.18,448.29,331.44,446.36,331.44z"
			/>
		<path class="st0" d="M452.69,332.05c-0.02-0.51-0.05-1.02-0.08-1.52h1.64l0.05,1.35h0.03c0.49-1.22,1.56-1.61,2.9-1.61
			c2.39,0,3.57,2.2,3.57,4.5c0,2.18-1.02,4.5-4.08,4.5c-0.69,0-1.81-0.34-2.37-1.22h-0.05v4.22h-1.61V332.05z M456.7,331.44
			c-1.83,0-2.4,1.79-2.4,3.34c0,1.59,0.46,3.34,2.25,3.34c1.96,0,2.56-1.74,2.56-3.34C459.1,333.18,458.63,331.44,456.7,331.44z"/>
		<path class="st0" d="M463.13,339.02V326.8h1.61v12.22H463.13z"/>
		<path class="st0" d="M467.68,326.8h1.91v1.74h-1.91V326.8z M467.83,339.02v-8.5h1.61v8.5H467.83z"/>
		<path class="st0" d="M477.21,333.25c-0.08-1.07-0.59-1.81-1.74-1.81c-1.54,0-2.13,1.34-2.13,3.34s0.59,3.34,2.13,3.34
			c1.07,0,1.73-0.69,1.81-1.91h1.61c-0.14,1.91-1.56,3.08-3.44,3.08c-2.73,0-3.81-1.93-3.81-4.44c0-2.49,1.25-4.57,3.94-4.57
			c1.79,0,3.15,1.13,3.23,2.98H477.21z"/>
		<path class="st0" d="M485.92,333.77c0-1.47-0.08-2.34-1.79-2.34c-0.81,0-1.57,0.47-1.59,1.35h-1.69c0.09-1.86,1.54-2.52,3.22-2.52
			c1.74,0,3.47,0.52,3.47,2.9v4.06c0,0.37,0.02,1.08,0.07,1.79h-1.08c-0.15,0-0.44,0.08-0.46-0.12c-0.03-0.39-0.07-0.76-0.08-1.15
			h-0.03c-0.52,1.07-1.47,1.52-2.64,1.52c-1.47,0-2.96-0.76-2.96-2.42c0-2.39,2.12-3.08,4.13-3.08H485.92z M484.31,334.89
			c-0.98,0.05-2.29,0.41-2.29,1.64c0,1.05,0.73,1.57,1.68,1.57c1.9,0,2.25-1.64,2.22-3.22H484.31z"/>
		<path class="st0" d="M490.45,330.52v-1.81l1.61-0.51v2.32l1.96-0.05v1.2l-1.96-0.02v5.49c0,0.61,0.47,0.9,1.05,0.9
			c0.25,0,0.59-0.03,0.85-0.1v1.24c-0.37,0.02-0.73,0.1-1.1,0.1c-0.39,0-0.69-0.02-1.08-0.08c-0.25-0.05-0.68-0.19-0.95-0.56
			c-0.29-0.41-0.37-0.44-0.37-1.57v-5.4l-1.46,0.02v-1.2L490.45,330.52z"/>
		<path class="st0" d="M495.88,326.8h1.91v1.74h-1.91V326.8z M496.03,339.02v-8.5h1.61v8.5H496.03z"/>
		<path class="st0" d="M508.26,334.77c0,2.64-1.44,4.5-4.23,4.5c-2.79,0-4.23-1.86-4.23-4.5c0-2.64,1.44-4.5,4.23-4.5
			C506.82,330.27,508.26,332.13,508.26,334.77z M504.02,338.11c1.91,0,2.54-1.52,2.54-3.34c0-1.81-0.63-3.34-2.54-3.34
			c-1.91,0-2.54,1.52-2.54,3.34C501.48,336.59,502.11,338.11,504.02,338.11z"/>
		<path class="st0" d="M511.94,331.78h0.03c0.54-1.07,1.73-1.51,2.57-1.51c0.59,0,3.22,0.15,3.22,2.88v5.88h-1.61v-5.35
			c0-1.4-0.59-2.17-1.95-2.17c0,0-0.88-0.05-1.56,0.63c-0.24,0.24-0.68,0.61-0.68,2.27v4.62h-1.61v-8.5h1.57V331.78z"/>
		<path class="st0" d="M528.76,326.8h4.1c2.27-0.1,4.23,0.75,4.23,3.42c0,2.56-2.08,3.37-4.33,3.42h-2.3v5.38h-1.69V326.8z
			 M533.11,332.18c0.2,0,2.2,0.1,2.2-1.96c0-2.07-2-1.96-2.2-1.96h-2.66v3.93H533.11z"/>
		<path class="st0" d="M538.83,339.02V326.8h1.61v12.22H538.83z"/>
		<path class="st0" d="M547.78,333.77c0-1.47-0.08-2.34-1.79-2.34c-0.81,0-1.57,0.47-1.59,1.35h-1.69c0.09-1.86,1.54-2.52,3.22-2.52
			c1.74,0,3.47,0.52,3.47,2.9v4.06c0,0.37,0.02,1.08,0.07,1.79h-1.08c-0.15,0-0.44,0.08-0.46-0.12c-0.03-0.39-0.07-0.76-0.08-1.15
			h-0.03c-0.52,1.07-1.47,1.52-2.64,1.52c-1.47,0-2.96-0.76-2.96-2.42c0-2.39,2.12-3.08,4.13-3.08H547.78z M546.17,334.89
			c-0.98,0.05-2.29,0.41-2.29,1.64c0,1.05,0.73,1.57,1.68,1.57c1.9,0,2.25-1.64,2.22-3.22H546.17z"/>
		<path class="st0" d="M551.97,330.52v-1.81l1.61-0.51v2.32l1.96-0.05v1.2l-1.96-0.02v5.49c0,0.61,0.47,0.9,1.05,0.9
			c0.25,0,0.59-0.03,0.85-0.1v1.24c-0.37,0.02-0.73,0.1-1.1,0.1c-0.39,0-0.69-0.02-1.08-0.08c-0.25-0.05-0.68-0.19-0.95-0.56
			c-0.29-0.41-0.37-0.44-0.37-1.57v-5.4l-1.46,0.02v-1.2L551.97,330.52z"/>
		<path class="st0" d="M558.27,339.02v-7.38h-1.66v-1.12h1.66v-1.63c0.05-1.86,1.46-2.35,2.66-2.35c0.39,0,0.76,0.1,1.15,0.17v1.34
			c-0.27-0.02-0.54-0.05-0.81-0.05c-0.91,0-1.44,0.24-1.39,1.17v1.35h1.96v1.12h-1.96v7.38H558.27z"/>
		<path class="st0" d="M571.39,334.77c0,2.64-1.44,4.5-4.23,4.5c-2.79,0-4.23-1.86-4.23-4.5c0-2.64,1.44-4.5,4.23-4.5
			C569.95,330.27,571.39,332.13,571.39,334.77z M567.15,338.11c1.91,0,2.54-1.52,2.54-3.34c0-1.81-0.63-3.34-2.54-3.34
			c-1.91,0-2.54,1.52-2.54,3.34C564.61,336.59,565.24,338.11,567.15,338.11z"/>
		<path class="st0" d="M574.48,339.02h-1.61v-8.5h1.61v1.64h0.03c0.24-1.17,1.32-1.76,2.49-1.76c0.2,0,0.37,0.02,0.56,0.02v1.52
			c-0.22-0.08-0.47-0.08-0.69-0.08c-2.03,0.07-2.39,1.15-2.39,2.95V339.02z"/>
		<path class="st0" d="M580.6,331.74h0.03c0.51-1.07,1.56-1.47,2.42-1.47c1.61,0,2.56,0.54,3,1.59c0.61-1.05,1.57-1.59,2.83-1.59
			c1.96,0,3.17,1.24,3.17,2.76v5.99h-1.61V334c0-1.17-0.17-2.49-2.05-2.49c-0.49,0-1.57,0.27-1.88,1.32
			c-0.22,0.78-0.17,1.63-0.17,1.83v4.37h-1.61V334c0-1.47-0.34-2.49-1.88-2.49c-0.66,0-1.61,0.25-2.1,1.39
			c-0.19,0.44-0.12,1.56-0.12,1.76v4.37h-1.61v-8.5h1.57V331.74z"/>
	</g>
	<g>
		<path class="st1" d="M217.39,269.8c0,3.08,1.5,5.86,3.91,7.84c-6.56,0.3-12.12,2.77-17.17,5.8c-0.01,0-0.52-0.57-0.52-0.57
			c-0.3,0.18-0.6,0.37-0.89,0.56c-0.18,0.11,0.16,0.8-0.02,0.92c-0.46,0.28-1.48-0.07-2.02,0.09c-2.34,0.73-5.18,0.22-6.9-1.34
			c-1.47-1.33-1.98-3.28-1.83-5.1c0.67-8.35,8.72-14.62,18.07-16.34c6.28-1.15,13.02-0.41,19.25,0.63
			C223.35,271.22,217.39,269.8,217.39,269.8"/>
		<path class="st2" d="M253.32,310.17c0,10.6-4.87,20.06-12.51,26.26c-0.38,0.31-0.77,0.61-1.17,0.91
			c-5.62,4.17-12.59,6.65-20.14,6.65c-8.9,0-17-3.44-23.04-9.06c-0.11-0.1-0.22-0.21-0.33-0.31c4.17,3.46,9.52,5.54,15.36,5.54
			c2.86,0,5.6-0.5,8.15-1.42c-0.54,0.05-1.09,0.07-1.64,0.07c-4.62,0-8.85-1.64-12.15-4.37c1.86,0.82,3.92,1.27,6.08,1.27
			c3.33,0,6.4-1.07,8.9-2.89c0.84-0.61,1.62-1.32,2.32-2.09c2.43-2.69,3.91-6.24,3.91-10.15c0-5.95-3.44-11.1-8.44-13.57
			c-1.39-0.69-2.89-1.16-4.47-1.4c-0.73-0.11-1.47-0.16-2.22-0.16c-0.17,0-1.38,0.01-1.53-0.01c2.96-0.49,6.32-2.34,7.71-5.01
			c1.77-3.41,1.51-6.3-0.45-9.29c-2.04-3.11-1.25-7.55,1.1-10.48c2.26-2.82,6.04-4.15,9.78-3.13c0.59,0.16,1.16,0.38,1.73,0.6
			c0.71,0,1.81,0.7,2.49,0.95c0.85,0.32,1.61,0.7,2.41,1.12c1.56,0.82,3.06,1.76,4.48,2.81c3.71,2.75,6.83,6.25,9.16,10.26
			c0.07,0.14,0.14,0.27,0.23,0.4c0,0.01,0.01,0.02,0.02,0.03C251.77,298.57,253.32,304.19,253.32,310.17z"/>
		<path class="st3" d="M204.39,319.65c-0.48,0.05-0.96,0.07-1.45,0.07c-1.38,0-2.72-0.17-4-0.5c-0.69-0.18-1.35-0.4-2-0.66
			c-3.92-1.58-7.06-4.66-8.73-8.52c-0.84-1.95-1.31-4.1-1.31-6.36c0-1.7,0.26-3.34,0.76-4.88c0.24-0.67,0.5-1.32,0.78-1.97
			c0.02-0.03,0.03-0.07,0.05-0.11c0.95-2.2,2.13-4.28,3.51-6.2c1.44-2.01,3.13-3.86,4.97-5.51c0.3-0.27,0.57-0.5,0.88-0.76
			c0.24-0.21,0.48-0.42,0.73-0.61c0.09-0.06,0.19-0.15,0.28-0.22c-0.8,0.61-1.5,1.35-2.05,2.19c-0.74,1.14-1.22,2.46-1.35,3.88
			c-0.03,0.27-0.04,0.54-0.04,0.81c0,1.04,0.18,2.03,0.52,2.95c0.4,1.1,1.02,2.1,1.8,2.94c0.03,0.03,0.06,0.06,0.09,0.09
			c0.82,0.85,1.81,1.53,2.92,1.99c0,0,0,0.01,0,0.01c2.3,0.89,3.95,3.09,4.03,5.69c0.01,0.07,0.01,0.14,0.01,0.2
			c0,1.45-0.64,2.72-1.58,3.79c-0.28,0.32-0.6,0.62-0.93,0.92c-1.07,0.98-2.28,1.94-2.66,3.32c-0.29,1.04-0.3,2.19-0.02,3.23
			C200.1,316.93,201.37,318.7,204.39,319.65z"/>
		<path class="st0" d="M227.42,277.28c-0.44-0.06-0.89-0.1-1.35-0.1c-1.89,0-3.64,0.57-5.1,1.53c-0.03,0.02-0.05,0.03-0.08,0.05
			c-3.78,2.27-5.07,7.59-3.26,11.47c0.37,0.8,0.86,1.54,1.22,2.35c1.01,2.31,0.83,5.04-0.2,7.33c-0.82,1.82-2.17,3.42-3.91,4.37
			c-1.85,1.02-3.83,1.1-5.86,1.44c-0.92,0.16-1.85,0.49-2.72,0.84c-0.88,0.36-2.61,1.11-3.31,1.77c0.87-1.41,2.12-3.39,1.88-5.08
			c-0.2-1.35-0.85-2.63-1.83-3.59c-1.1-1.09-2.65-1.55-3.9-2.43c-1.85-1.3-3.15-3.37-3.5-5.61c-0.49-3.09,0.85-6.34,3.35-8.22
			c0.01-0.01,0.01-0.01,0.02-0.02c0.08-0.06,0.16-0.13,0.23-0.19c0.29-0.22,0.59-0.44,0.89-0.65c0,0,0.01,0,0.01-0.01
			c5.05-3.57,11.11-5.8,17.67-6.15c0.61-0.03,1.23-0.05,1.85-0.05C222.23,276.35,224.88,276.67,227.42,277.28z"/>
		<g>
			<path class="st0" d="M231.14,310.05c-0.22,0.03-0.43,0.04-0.64,0.04c0.4,0.78,1.27,1.26,2.19,1.13c1.17-0.16,1.98-1.24,1.82-2.41
				c-0.03-0.23-0.1-0.44-0.19-0.64C233.57,309.16,232.45,309.86,231.14,310.05z"/>
		</g>
		<g>
			<path class="st0" d="M227.09,312.04c-0.17,0.02-0.34,0.03-0.51,0.04c0.32,0.63,1.01,1.01,1.75,0.91
				c0.93-0.13,1.59-0.99,1.46-1.93c-0.03-0.18-0.08-0.35-0.16-0.51C229.03,311.33,228.14,311.89,227.09,312.04z"/>
		</g>
		<g>
			<path class="st0" d="M228.54,303.91c-0.31,0.11-0.63,0.19-0.95,0.26c0.84,1.05,2.27,1.51,3.61,1.05c1.7-0.59,2.6-2.44,2.01-4.14
				c-0.12-0.33-0.28-0.63-0.48-0.9C231.92,301.87,230.46,303.25,228.54,303.91z"/>
		</g>
		<g>
			<path class="st0" d="M223.33,307.76c-0.25,0.09-0.5,0.15-0.76,0.21c0.67,0.84,1.82,1.21,2.89,0.84c1.36-0.47,2.08-1.95,1.61-3.31
				c-0.09-0.27-0.22-0.51-0.38-0.72C226.04,306.12,224.86,307.23,223.33,307.76z"/>
		</g>
		<path class="st4" d="M249.05,293.69c-0.01-0.01-0.01-0.02-0.02-0.03c-0.08-0.13-0.16-0.26-0.23-0.4
			c-2.32-4.02-5.45-7.51-9.16-10.26c-0.9-0.66-1.83-1.28-2.79-1.85c7.01,6.54,11.4,15.86,11.4,26.2c0,19.79-16.04,35.83-35.83,35.83
			c-0.1,0-0.2,0-0.29,0c2.37,0.53,4.84,0.81,7.38,0.81c7.54,0,14.51-2.47,20.14-6.65c0.4-0.3,0.79-0.6,1.17-0.91
			c7.63-6.2,12.51-15.66,12.51-26.26C253.32,304.19,251.77,298.57,249.05,293.69z"/>
		<g>
			<path class="st5" d="M204.77,303.98c0-0.12-0.01-0.24-0.03-0.37c0-0.03,0-0.06-0.01-0.09c0-0.01,0-0.03,0-0.04
				c-0.03-0.31-0.09-0.61-0.17-0.91c0-0.01-0.01-0.02-0.01-0.03c-0.03-0.13-0.07-0.26-0.12-0.38c-0.02-0.06-0.04-0.11-0.06-0.17
				c-0.03-0.09-0.06-0.17-0.1-0.25c-0.05-0.11-0.1-0.23-0.16-0.34c-0.01-0.03-0.03-0.06-0.04-0.08c-0.23-0.44-0.51-0.86-0.83-1.24
				c-0.03-0.03-0.05-0.06-0.08-0.09c-0.08-0.09-0.16-0.18-0.24-0.26c-0.03-0.03-0.07-0.06-0.1-0.09c-0.22-0.21-0.46-0.4-0.71-0.57
				c-4.4,2.25-7.25,5.8-7.25,9.8c0,4.15,3.07,7.82,7.76,10.05c-1.79-0.98-2.65-2.31-3.05-3.46c-0.28-1.05-0.27-2.19,0.02-3.23
				c0.38-1.38,1.59-2.34,2.66-3.32c0.2-0.18,0.39-0.37,0.57-0.55c0.12-0.12,0.24-0.24,0.35-0.37c0.94-1.07,1.58-2.34,1.58-3.79
				C204.77,304.12,204.77,304.05,204.77,303.98z"/>
		</g>
		<g>
			<path class="st0" d="M268.91,316.88c2.89-5.93,4.53-12.6,4.53-19.64c0-24.7-19.94-44.73-44.59-44.9
				c-4.28,0.94-9.02,3.03-11.97,6.45c-1.94,2.25-3.12,5.18-3.12,8.38c0,3.62,1.5,6.9,3.91,9.23c0.61-0.03,1.23-0.05,1.85-0.05
				c2.72,0,5.37,0.32,7.9,0.93c0.12,0.03,0.24,0.06,0.36,0.09c0.01,0,0.01,0,0.02,0c0.57,0.1,1.12,0.26,1.65,0.46
				c0.06,0.02,0.11,0.03,0.17,0.05c0.34,0.1,0.67,0.21,1,0.33c0.5,0.17,1,0.36,1.49,0.56c2.7,1.08,5.23,2.51,7.53,4.22
				c3.71,2.75,6.83,6.25,9.16,10.26c-0.32-0.63-0.49-1.34-0.49-2.1c0-2.09,1.44-3.98,3.45-4.54c2.5-0.69,5.56,0.47,7.33,2.02
				C259.1,288.64,270.33,296.9,268.91,316.88z"/>
			<path class="st6" d="M280.12,289.26c-0.32-2.73-0.9-5.38-1.72-7.92c-1.94-5.42-4.78-10.41-8.34-14.79
				c-4.27-5.25-10.17-9.52-16.57-12.16c-0.58-0.24-1.17-0.47-1.76-0.68c-1.18-0.43-2.37-0.79-3.57-1.1c-1.2-0.31-2.4-0.56-3.61-0.74
				c-0.64-0.1-1.28-0.18-1.92-0.25c-1.29-0.14-2.58-0.22-3.87-0.24c-3.23-0.05-6.47,0.25-9.64,0.92c-0.09,0.02-0.19,0.04-0.28,0.06
				c24.66,0.17,44.59,20.2,44.59,44.9c0,7.05-1.63,13.71-4.53,19.64c-0.16,2.31-0.5,4.78-1.04,7.4c0.63-0.62,1.24-1.26,1.83-1.92
				c0.63-0.71,1.25-1.44,1.83-2.2c1.17-1.51,2.24-3.09,3.21-4.75c1.2-2.07,2.23-4.26,3.08-6.54c1.68-4.56,2.6-9.48,2.6-14.63
				C280.41,292.56,280.31,290.9,280.12,289.26z"/>
		</g>
		<g>
			<path class="st2" d="M236.06,270.15c-1.14-4.2,1.34-8.53,5.54-9.67c0.14-0.04,0.29-0.07,0.43-0.1c-1.72-0.94-3.8-1.24-5.84-0.69
				c-4.2,1.14-6.68,5.47-5.54,9.67c1.1,4.06,5.18,6.51,9.24,5.65C238.07,274.01,236.64,272.3,236.06,270.15z"/>
		</g>
		<g>
			<path class="st2" d="M247.5,272.47c-0.05-3.46,2.72-6.31,6.19-6.36c0.12,0,0.24,0,0.35,0.01c-1.14-1.07-2.68-1.71-4.36-1.69
				c-3.46,0.05-6.23,2.89-6.19,6.36c0.05,3.35,2.7,6.04,6,6.18C248.29,275.85,247.53,274.25,247.5,272.47z"/>
		</g>
		<path class="st0" d="M198.84,283.43c0,0-5.44,4.1-7.83,8.54c-2.39,4.44-1.46,9.6,2.95,10.82c3.43,0.94,8.4,0.6,7.72,6.64
			c1.37-1.15,1.8-1.59,4.47-2.84c2.42-3.62,1.57-7.83,1.57-7.83l-8.82-4.43C198.89,294.32,197.68,284.3,198.84,283.43z"/>
		<path class="st1" d="M190.07,302.73c0,0.37-0.3,0.67-0.67,0.67s-0.67-0.3-0.67-0.67c0-0.37,0.3-0.67,0.67-0.67
			S190.07,302.35,190.07,302.73z"/>
		<g>
			<g>
				<path class="st3" d="M206.29,295.76c-2.56,2.09-6.34,1.71-8.44-0.85l-0.59,0.48c2.36,2.89,6.62,3.32,9.51,0.96
					s3.32-6.62,0.96-9.51l-0.59,0.48C209.24,289.89,208.85,293.66,206.29,295.76z"/>
				<path class="st7" d="M206.29,295.76c2.57-2.09,2.95-5.87,0.85-8.44l-9.29,7.58C199.95,297.47,203.72,297.85,206.29,295.76z"/>
			</g>
		</g>
	</g>
	<g>
		<g>
			<path class="st0" d="M306.43,309.71v-48.43h14.96c10.73,0.07,19.79,2.62,19.79,14.89c0,8.79-5.97,14.56-16.77,14.89h-7.58v18.65
				H306.43z M316.83,283.01c5.77-0.27,13.28,1.74,13.28-6.84s-7.51-6.57-13.28-6.84V283.01z"/>
			<path class="st0" d="M357.63,261.28v48.43h-10.06v-48.43H357.63z"/>
			<path class="st0" d="M375.98,295.55c0,4.36,0.6,8.45,5.77,8.45c3.49,0,5.23-1.27,6.17-4.36h9.06
				c-0.87,8.32-7.38,11.07-15.23,11.07c-11.54,0-16.17-6.51-16.17-17.78c0-10.13,5.9-17.91,16.17-17.91
				c6.31,0,11.54,2.15,14.35,8.05c0.94,1.88,1.41,3.89,1.68,6.04c0.27,2.08,0.27,4.23,0.27,6.44H375.98z M387.65,288.85
				c0-3.69-1.01-7.11-5.9-7.11c-4.63,0-5.63,3.42-5.77,7.11H387.65z"/>
			<path class="st0" d="M405.18,285.56c0.07-4.23,1.88-6.84,4.56-8.38c2.75-1.61,6.31-2.15,9.93-2.15c6.77,0,14.35,2.48,14.35,12.61
				v18.38c0.07,1.68,0.34,2.68,0.47,3.69h-9.06c-0.2-1.54-0.34-3.09-0.34-4.49h-0.13c-2.28,3.89-5.77,5.5-10.33,5.5
				c-6.31,0-11-3.62-11-10.2c0-2.35,1.07-8.05,7.18-10.66c4.02-1.74,9.12-1.95,13.15-1.81v-3.15c0-1.41-1.07-4.16-4.63-4.16
				c-3.49,0-4.63,3.29-4.49,4.83H405.18z M413.3,299.18c0,2.82,2.08,4.83,4.9,4.83c5.57,0,5.77-6.17,5.77-10.13
				C420.48,293.81,413.3,293.74,413.3,299.18z"/>
			<path class="st0" d="M458.98,285.02c-0.13-2.28-2.28-3.29-4.56-3.29c-2.75,0-4.02,0.8-4.02,3.02c0,5.3,19.25,2.28,19.25,14.89
				c0,7.38-8.99,11.07-15.23,11.07c-7.85,0-14.69-3.09-14.82-10.8h9.32c0.2,2.62,2.55,4.09,5.5,4.09c2.75,0,4.83-1.14,4.83-3.76
				c0-2.68-4.83-3.82-6.84-4.29c-6.44-1.54-12.41-2.95-12.41-10.8c0-7.04,8.52-10.13,14.42-10.13c7.11,0,13.15,2.55,13.62,9.99
				H458.98z"/>
			<path class="st0" d="M476.73,285.56c0.07-4.23,1.88-6.84,4.56-8.38c2.75-1.61,6.31-2.15,9.93-2.15c6.77,0,14.35,2.48,14.35,12.61
				v18.38c0.07,1.68,0.34,2.68,0.47,3.69h-9.06c-0.2-1.54-0.34-3.09-0.34-4.49h-0.13c-2.28,3.89-5.77,5.5-10.33,5.5
				c-6.31,0-11-3.62-11-10.2c0-2.35,1.07-8.05,7.18-10.66c4.02-1.74,9.12-1.95,13.15-1.81v-3.15c0-1.41-1.07-4.16-4.63-4.16
				c-3.49,0-4.63,3.29-4.49,4.83H476.73z M484.85,299.18c0,2.82,2.08,4.83,4.9,4.83c5.57,0,5.77-6.17,5.77-10.13
				C492.03,293.81,484.85,293.74,484.85,299.18z"/>
			<path class="st0" d="M524.15,279.93l0.13,0.2c2.08-3.09,5.23-5.1,10.33-5.1c3.35,0,9.86,2.48,11.07,7.38
				c0.54,2.08,0.67,4.23,0.67,5.37v21.93H536.3v-20.26c-0.07-3.62-1.07-7.71-6.04-7.71c-3.15,0-5.9,2.82-6.04,7.71v20.26h-10.06
				v-33.67h9.99V279.93z"/>
			<path class="st0" d="M558.56,276.04v-6.64l10.06-3.62v10.26h7.58v6.71h-7.58v15.63c0,4.43,0.67,5.63,4.16,5.63
				c1.07,0,2.15-0.13,3.22-0.2v5.9c-1.14,0.54-6.51,1.01-7.92,1.01c-7.85,0-9.53-4.09-9.53-11.4v-16.57h-6.78v-6.71H558.56z"/>
			<path class="st0" d="M592.1,295.55c0,4.36,0.6,8.45,5.77,8.45c3.49,0,5.23-1.27,6.17-4.36h9.06
				c-0.87,8.32-7.38,11.07-15.23,11.07c-11.54,0-16.17-6.51-16.17-17.78c0-10.13,5.9-17.91,16.17-17.91
				c6.31,0,11.54,2.15,14.35,8.05c0.94,1.88,1.41,3.89,1.68,6.04c0.27,2.08,0.27,4.23,0.27,6.44H592.1z M603.77,288.85
				c0-3.69-1.01-7.11-5.9-7.11c-4.63,0-5.63,3.42-5.77,7.11H603.77z"/>
		</g>
		<path class="st0" d="M642.18,284.74c3.41-1.22,9.09-3.64,13.15-13.8c-2.84,1.35-8.1,2.43-14.39,4.33
			c-6.39,1.93-9.63,9.44-10.59,12.07v-11.06h-9.73v33.42h9.73v-7.6c0,0,0-5.7,8.66-8.79c5.63-2.01,9.12-4.66,12.37-11.29
			C651.39,282.03,645.68,285.42,642.18,284.74z"/>
	</g>
</g>
<g>
	<path class="st1" d="M207.17,294.87c1.74-2.16,1.79-5.31-0.03-7.55l-6.02,4.92c0.17,0.33,0.36,0.66,0.61,0.96
		c0.23,0.28,0.48,0.53,0.75,0.74c-0.03-0.1-0.06-0.2-0.06-0.31c0-0.64,0.52-1.16,1.16-1.16c0.64,0,1.16,0.52,1.16,1.16
		c0,0.53-0.36,0.96-0.84,1.1C204.94,295.13,206.09,295.19,207.17,294.87z"/>
	<path class="st7" d="M204.73,293.63c0-0.64-0.52-1.16-1.16-1.16c-0.64,0-1.16,0.52-1.16,1.16c0,0.11,0.03,0.21,0.06,0.31
		c0.14,0.49,0.57,0.85,1.1,0.85c0.11,0,0.21-0.03,0.32-0.06C204.37,294.59,204.73,294.16,204.73,293.63z"/>
</g>
<g>
</g>
<g>
</g>
<g>
</g>
<g>
</g>
<g>
</g>
<g>
</g>
</svg>
