<?xml version="1.0" encoding="utf-8"?>
<!-- Generator: Adobe Illustrator 25.4.1, SVG Export Plug-In . SVG Version: 6.00 Build 0)  -->
<svg version="1.1" baseProfile="basic" id="レイヤー_1"
	 xmlns="http://www.w3.org/2000/svg" xmlns:xlink="http://www.w3.org/1999/xlink" x="0px" y="0px" viewBox="0 0 841.89 595.28"
	 xml:space="preserve">
<style type="text/css">
	.st0{fill:#71696C;}
	.st1{fill:#4C4043;}
	.st2{fill:#E4D6CF;}
	.st3{fill:#FCC800;}
	.st4{fill:#D1C5BE;}
	.st5{fill:#D9AD00;}
	.st6{fill:#655D60;}
	.st7{fill:#FFFFFF;}
</style>
<g>
	<path class="st0" d="M547.97,221.11c-0.84-7.11-2.35-14.02-4.49-20.65c-5.04-14.13-12.45-27.14-21.74-38.56
		c-11.14-13.68-26.5-24.82-43.18-31.7c-1.52-0.63-3.04-1.22-4.58-1.77c-3.07-1.11-6.18-2.07-9.3-2.88c-3.12-0.81-6.26-1.46-9.4-1.94
		c-1.67-0.26-3.34-0.48-5.01-0.66c-3.35-0.36-6.72-0.57-10.09-0.63c-8.43-0.14-16.87,0.66-25.12,2.39
		c-0.24,0.05-0.49,0.11-0.74,0.17c-11.17,2.46-23.52,7.89-31.21,16.8c-5.06,5.87-8.12,13.51-8.12,21.86
		c0,9.44,3.9,17.97,10.19,24.06c-17.11,0.93-32.92,6.73-46.07,16.04c-0.01,0.01-0.02,0.01-0.03,0.01c-0.78,0.56-1.55,1.12-2.31,1.7
		c-0.2,0.17-0.4,0.35-0.61,0.51c-0.02,0.01-0.03,0.03-0.06,0.04c-6.5,4.9-10,13.36-8.73,21.43c0.92,5.83,4.29,11.23,9.13,14.62
		c3.27,2.29,7.29,3.51,10.16,6.34c2.54,2.5,4.25,5.84,4.76,9.37c0.63,4.39-2.64,9.56-4.9,13.23c1.84-1.74,6.35-3.68,8.64-4.62
		c2.25-0.93,4.68-1.78,7.08-2.2c5.29-0.91,10.45-1.11,15.28-3.77c4.55-2.5,8.07-6.67,10.2-11.4c2.69-5.99,3.16-13.1,0.52-19.11
		c-0.93-2.11-2.2-4.04-3.18-6.13c-4.72-10.11-1.35-23.99,8.5-29.9c0.07-0.04,0.13-0.09,0.2-0.13c3.81-2.52,8.38-3.99,13.3-3.99
		c1.2,0,2.38,0.09,3.53,0.26c0.31,0.08,0.63,0.16,0.95,0.24c0.01,0,0.03,0.01,0.05,0.01c1.48,0.27,2.92,0.67,4.3,1.2
		c0.15,0.05,0.3,0.09,0.45,0.14c0.88,0.27,1.75,0.56,2.62,0.86c1.32,0.45,2.62,0.94,3.9,1.46c7.04,2.83,13.62,6.54,19.63,10.99
		c9.67,7.17,17.81,16.28,23.87,26.75c-0.82-1.65-1.28-3.5-1.28-5.47c0-5.45,3.74-10.38,9-11.84c6.52-1.81,14.49,1.23,19.12,5.25
		c0,0,29.27,21.52,25.57,73.62c-0.43,6.02-1.3,12.45-2.7,19.3c1.64-1.62,3.23-3.28,4.76-5c1.65-1.85,3.25-3.76,4.77-5.73
		c3.05-3.93,5.85-8.07,8.36-12.39c3.14-5.41,5.82-11.11,8.02-17.05c4.38-11.88,6.78-24.72,6.78-38.12
		C548.73,229.72,548.47,225.38,547.97,221.11z"/>
	<g>
		<path class="st0" d="M293.62,469.91v-12.02h4.3c2.06,0,3.88,0.8,3.88,3.13c0,1.25-0.85,2.26-2.03,2.6v0.03
			c1.55,0.23,2.4,1.61,2.4,3.11c0,1.4-0.92,2.45-2.18,2.91c-0.62,0.23-1.35,0.25-2.06,0.23H293.62z M295.29,462.95h2.06
			c1.58,0.05,2.7-0.23,2.7-1.81c0-1.58-1.12-1.86-2.7-1.81h-2.06V462.95z M295.29,468.48h2.78c1.28,0,2.35-0.57,2.35-2.05
			s-1.07-2.05-2.35-2.05h-2.78V468.48z"/>
		<path class="st0" d="M309.59,461.55h1.58v8.36h-1.55v-1.23h-0.03c-0.63,1.05-1.7,1.48-2.86,1.48c-1.75,0-2.75-1.33-2.75-3.01
			v-5.59h1.58v4.94c0,1.45,0.33,2.51,1.85,2.51c0.65,0,1.53-0.33,1.87-1.2c0.3-0.78,0.32-1.76,0.32-1.96V461.55z"/>
		<path class="st0" d="M316.48,461.3c1.58,0,3.36,0.67,3.25,2.56h-1.66c0.07-1.07-0.75-1.42-1.66-1.42c-0.85,0-1.53,0.4-1.53,1.33
			c0,0.93,1.43,1,2.03,1.18c1.41,0.47,3.05,0.63,3.05,2.51c0,2.05-2,2.68-3.71,2.68c-1.75,0-3.21-0.8-3.2-2.73h1.66
			c0.03,1.03,0.73,1.58,1.7,1.58c0.93,0,1.88-0.37,1.88-1.45c0-1.86-5.08-0.47-5.08-3.73C313.2,462.09,314.97,461.3,316.48,461.3z"
			/>
		<path class="st0" d="M322.03,457.89h1.88v1.71h-1.88V457.89z M322.18,469.91v-8.36h1.58v8.36H322.18z"/>
		<path class="st0" d="M328.32,462.79h0.03c0.53-1.05,1.7-1.48,2.53-1.48c0.58,0,3.16,0.15,3.16,2.83v5.78h-1.58v-5.26
			c0-1.38-0.58-2.13-1.91-2.13c0,0-0.87-0.05-1.53,0.62c-0.23,0.23-0.67,0.6-0.67,2.23v4.54h-1.58v-8.36h1.55V462.79z"/>
		<path class="st0" d="M337.96,466.03c-0.12,1.46,0.48,2.98,2.1,2.98c1.23,0,1.85-0.48,2.03-1.7h1.66c-0.25,1.9-1.71,2.85-3.71,2.85
			c-2.68,0-3.75-1.9-3.75-4.36c0-2.45,1.23-4.49,3.88-4.49c2.5,0.05,3.68,1.63,3.68,3.94v0.78H337.96z M342.19,464.93
			c0.03-1.4-0.6-2.48-2.13-2.48c-1.32,0-2.1,1.12-2.1,2.48H342.19z"/>
		<path class="st0" d="M348.87,461.3c1.58,0,3.36,0.67,3.25,2.56h-1.66c0.07-1.07-0.75-1.42-1.66-1.42c-0.85,0-1.53,0.4-1.53,1.33
			c0,0.93,1.43,1,2.03,1.18c1.42,0.47,3.05,0.63,3.05,2.51c0,2.05-2,2.68-3.71,2.68c-1.75,0-3.21-0.8-3.2-2.73h1.66
			c0.03,1.03,0.73,1.58,1.7,1.58c0.93,0,1.88-0.37,1.88-1.45c0-1.86-5.08-0.47-5.08-3.73C345.59,462.09,347.35,461.3,348.87,461.3z"
			/>
		<path class="st0" d="M357.2,461.3c1.58,0,3.36,0.67,3.25,2.56h-1.66c0.07-1.07-0.75-1.42-1.66-1.42c-0.85,0-1.53,0.4-1.53,1.33
			c0,0.93,1.43,1,2.03,1.18c1.41,0.47,3.05,0.63,3.05,2.51c0,2.05-2,2.68-3.71,2.68c-1.75,0-3.21-0.8-3.2-2.73h1.66
			c0.03,1.03,0.73,1.58,1.7,1.58c0.93,0,1.88-0.37,1.88-1.45c0-1.86-5.08-0.47-5.08-3.73C353.92,462.09,355.68,461.3,357.2,461.3z"
			/>
		<path class="st0" d="M369.47,469.91l5.06-12.02h1.78l4.86,12.02h-1.81l-1.3-3.13h-5.58l-1.3,3.13H369.47z M373.05,465.35h4.48
			l-2.18-5.81L373.05,465.35z"/>
		<path class="st0" d="M382.77,463.05c-0.02-0.5-0.05-1-0.08-1.5h1.61l0.05,1.33h0.03c0.48-1.2,1.53-1.58,2.85-1.58
			c2.35,0,3.51,2.16,3.51,4.43c0,2.15-1,4.43-4.01,4.43c-0.68,0-1.78-0.33-2.33-1.2h-0.05v4.14h-1.58V463.05z M386.72,462.45
			c-1.8,0-2.36,1.76-2.36,3.28c0,1.56,0.45,3.28,2.21,3.28c1.93,0,2.51-1.71,2.51-3.28C389.08,464.17,388.61,462.45,386.72,462.45z"
			/>
		<path class="st0" d="M392.94,463.05c-0.02-0.5-0.05-1-0.08-1.5h1.61l0.05,1.33h0.03c0.48-1.2,1.53-1.58,2.85-1.58
			c2.35,0,3.51,2.16,3.51,4.43c0,2.15-1,4.43-4.01,4.43c-0.68,0-1.78-0.33-2.33-1.2h-0.05v4.14h-1.58V463.05z M396.89,462.45
			c-1.8,0-2.36,1.76-2.36,3.28c0,1.56,0.45,3.28,2.21,3.28c1.93,0,2.51-1.71,2.51-3.28C399.25,464.17,398.79,462.45,396.89,462.45z"
			/>
		<path class="st0" d="M403.22,469.91v-12.02h1.58v12.02H403.22z"/>
		<path class="st0" d="M407.7,457.89h1.88v1.71h-1.88V457.89z M407.85,469.91v-8.36h1.58v8.36H407.85z"/>
		<path class="st0" d="M417.07,464.23c-0.08-1.05-0.58-1.78-1.71-1.78c-1.51,0-2.1,1.31-2.1,3.28c0,1.96,0.58,3.28,2.1,3.28
			c1.05,0,1.7-0.68,1.78-1.88h1.58c-0.13,1.88-1.53,3.03-3.38,3.03c-2.68,0-3.75-1.9-3.75-4.36c0-2.45,1.23-4.49,3.88-4.49
			c1.76,0,3.1,1.12,3.18,2.93H417.07z"/>
		<path class="st0" d="M425.64,464.75c0-1.45-0.08-2.3-1.76-2.3c-0.8,0-1.55,0.47-1.56,1.33h-1.66c0.08-1.83,1.51-2.48,3.16-2.48
			c1.71,0,3.41,0.52,3.41,2.85v4c0,0.37,0.02,1.07,0.07,1.76h-1.07c-0.15,0-0.43,0.08-0.45-0.12c-0.03-0.38-0.07-0.75-0.08-1.13
			h-0.03c-0.52,1.05-1.45,1.5-2.6,1.5c-1.45,0-2.91-0.75-2.91-2.38c0-2.35,2.08-3.03,4.06-3.03H425.64z M424.06,465.85
			c-0.97,0.05-2.25,0.4-2.25,1.61c0,1.03,0.72,1.55,1.65,1.55c1.86,0,2.21-1.61,2.18-3.16H424.06z"/>
		<path class="st0" d="M430.11,461.55v-1.78l1.58-0.5v2.28l1.93-0.05v1.18l-1.93-0.02v5.39c0,0.6,0.47,0.88,1.03,0.88
			c0.25,0,0.58-0.03,0.83-0.1v1.22c-0.37,0.02-0.72,0.1-1.08,0.1c-0.38,0-0.68-0.02-1.07-0.08c-0.25-0.05-0.67-0.18-0.93-0.55
			c-0.28-0.4-0.37-0.43-0.37-1.55v-5.31l-1.43,0.02v-1.18L430.11,461.55z"/>
		<path class="st0" d="M435.45,457.89h1.88v1.71h-1.88V457.89z M435.6,469.91v-8.36h1.58v8.36H435.6z"/>
		<path class="st0" d="M447.62,465.73c0,2.6-1.42,4.43-4.16,4.43c-2.75,0-4.16-1.83-4.16-4.43c0-2.6,1.41-4.43,4.16-4.43
			C446.21,461.3,447.62,463.14,447.62,465.73z M443.46,469.01c1.88,0,2.5-1.5,2.5-3.28c0-1.78-0.62-3.28-2.5-3.28
			c-1.88,0-2.5,1.5-2.5,3.28C440.96,467.51,441.58,469.01,443.46,469.01z"/>
		<path class="st0" d="M451.25,462.79h0.03c0.53-1.05,1.7-1.48,2.53-1.48c0.58,0,3.16,0.15,3.16,2.83v5.78h-1.58v-5.26
			c0-1.38-0.58-2.13-1.91-2.13c0,0-0.87-0.05-1.53,0.62c-0.23,0.23-0.67,0.6-0.67,2.23v4.54h-1.58v-8.36h1.55V462.79z"/>
		<path class="st0" d="M467.8,457.89h4.03c2.23-0.1,4.16,0.73,4.16,3.36c0,2.51-2.05,3.31-4.26,3.36h-2.26v5.29h-1.67V457.89z
			 M472.08,463.19c0.2,0,2.16,0.1,2.16-1.93c0-2.03-1.96-1.93-2.16-1.93h-2.61v3.86H472.08z"/>
		<path class="st0" d="M477.71,469.91v-12.02h1.58v12.02H477.71z"/>
		<path class="st0" d="M486.52,464.75c0-1.45-0.08-2.3-1.76-2.3c-0.8,0-1.55,0.47-1.56,1.33h-1.66c0.08-1.83,1.51-2.48,3.16-2.48
			c1.71,0,3.41,0.52,3.41,2.85v4c0,0.37,0.02,1.07,0.07,1.76h-1.07c-0.15,0-0.43,0.08-0.45-0.12c-0.03-0.38-0.07-0.75-0.08-1.13
			h-0.03c-0.52,1.05-1.45,1.5-2.6,1.5c-1.45,0-2.91-0.75-2.91-2.38c0-2.35,2.08-3.03,4.06-3.03H486.52z M484.94,465.85
			c-0.97,0.05-2.25,0.4-2.25,1.61c0,1.03,0.72,1.55,1.65,1.55c1.86,0,2.21-1.61,2.18-3.16H484.94z"/>
		<path class="st0" d="M490.65,461.55v-1.78l1.58-0.5v2.28l1.93-0.05v1.18l-1.93-0.02v5.39c0,0.6,0.47,0.88,1.03,0.88
			c0.25,0,0.58-0.03,0.83-0.1v1.22c-0.37,0.02-0.72,0.1-1.08,0.1c-0.38,0-0.68-0.02-1.07-0.08c-0.25-0.05-0.67-0.18-0.93-0.55
			c-0.28-0.4-0.37-0.43-0.37-1.55v-5.31l-1.43,0.02v-1.18L490.65,461.55z"/>
		<path class="st0" d="M496.84,469.91v-7.26h-1.63v-1.1h1.63v-1.6c0.05-1.83,1.43-2.31,2.61-2.31c0.38,0,0.75,0.1,1.13,0.17v1.32
			c-0.27-0.02-0.53-0.05-0.8-0.05c-0.9,0-1.42,0.23-1.36,1.15v1.33h1.93v1.1h-1.93v7.26H496.84z"/>
		<path class="st0" d="M509.74,465.73c0,2.6-1.42,4.43-4.16,4.43c-2.75,0-4.16-1.83-4.16-4.43c0-2.6,1.42-4.43,4.16-4.43
			C508.33,461.3,509.74,463.14,509.74,465.73z M505.58,469.01c1.88,0,2.5-1.5,2.5-3.28c0-1.78-0.62-3.28-2.5-3.28
			c-1.88,0-2.5,1.5-2.5,3.28C503.09,467.51,503.7,469.01,505.58,469.01z"/>
		<path class="st0" d="M512.79,469.91h-1.58v-8.36h1.58v1.61h0.03c0.23-1.15,1.3-1.73,2.45-1.73c0.2,0,0.37,0.02,0.55,0.02v1.5
			c-0.22-0.08-0.47-0.08-0.68-0.08c-2,0.07-2.35,1.13-2.35,2.9V469.91z"/>
		<path class="st0" d="M518.82,462.75h0.03c0.5-1.05,1.53-1.45,2.38-1.45c1.58,0,2.51,0.53,2.95,1.56c0.6-1.03,1.55-1.56,2.78-1.56
			c1.93,0,3.11,1.22,3.11,2.71v5.89h-1.58v-4.94c0-1.15-0.17-2.45-2.01-2.45c-0.48,0-1.55,0.27-1.85,1.3
			c-0.22,0.77-0.17,1.6-0.17,1.8v4.29h-1.58v-4.94c0-1.45-0.33-2.45-1.85-2.45c-0.65,0-1.58,0.25-2.06,1.36
			c-0.18,0.43-0.12,1.53-0.12,1.73v4.29h-1.58v-8.36h1.55V462.75z"/>
	</g>
	<g>
		<path class="st1" d="M384.46,170.4c0,8.02,3.9,15.27,10.19,20.44c-17.11,0.79-31.6,7.22-44.75,15.13
			c-0.01,0.01-1.34-1.49-1.34-1.49c-0.79,0.47-1.56,0.95-2.32,1.45c-0.46,0.29,0.41,2.09-0.05,2.4c-1.2,0.72-3.85-0.19-5.26,0.24
			c-6.11,1.89-13.5,0.56-17.98-3.49c-3.84-3.48-5.16-8.54-4.78-13.3c1.75-21.77,22.74-38.12,47.09-42.59
			c16.38-3.01,33.94-1.06,50.18,1.65C400,174.08,384.46,170.4,384.46,170.4"/>
		<path class="st2" d="M478.13,275.61c0,27.62-12.71,52.28-32.6,68.44c-1,0.81-2.02,1.6-3.05,2.37
			c-14.66,10.88-32.82,17.33-52.49,17.33c-23.2,0-44.3-8.96-60.05-23.62c-0.29-0.26-0.57-0.54-0.86-0.81
			c10.86,9.01,24.81,14.43,40.03,14.43c7.45,0,14.61-1.3,21.24-3.69c-1.41,0.13-2.83,0.19-4.27,0.19c-12.04,0-23.08-4.28-31.68-11.4
			c4.85,2.13,10.21,3.31,15.84,3.31c8.67,0,16.69-2.8,23.2-7.54c2.2-1.6,4.23-3.43,6.05-5.44c6.33-7,10.19-16.28,10.19-26.46
			c0-15.52-8.96-28.94-21.99-35.38c-3.61-1.79-7.53-3.03-11.66-3.64c-1.89-0.28-3.83-0.42-5.8-0.42c-0.45,0-3.59,0.02-4-0.02
			c7.7-1.27,16.49-6.1,20.11-13.07c4.62-8.88,3.95-16.42-1.18-24.22c-5.33-8.1-3.25-19.68,2.87-27.32
			c5.89-7.36,15.75-10.82,25.49-8.15c1.53,0.42,3.02,0.99,4.5,1.56c1.85,0,4.73,1.81,6.48,2.48c2.21,0.85,4.19,1.82,6.28,2.91
			c4.08,2.13,7.99,4.59,11.68,7.33c9.67,7.17,17.81,16.28,23.87,26.75c0.18,0.35,0.38,0.7,0.59,1.04c0.01,0.03,0.02,0.05,0.04,0.08
			C474.08,245.37,478.13,260.02,478.13,275.61z"/>
		<path class="st3" d="M350.56,300.33c-1.25,0.12-2.51,0.17-3.78,0.17c-3.6,0-7.09-0.45-10.42-1.31c-1.79-0.46-3.53-1.03-5.21-1.72
			c-10.21-4.11-18.41-12.14-22.76-22.21c-2.2-5.08-3.42-10.68-3.42-16.57c0-4.43,0.69-8.7,1.97-12.72c0.62-1.74,1.29-3.44,2.02-5.14
			c0.04-0.09,0.08-0.18,0.13-0.28c2.48-5.73,5.55-11.15,9.14-16.17c3.76-5.25,8.17-10.07,12.95-14.37c0.78-0.7,1.47-1.3,2.28-1.97
			c0.63-0.54,1.26-1.09,1.91-1.59c0.24-0.17,0.49-0.39,0.72-0.57c-2.09,1.58-3.9,3.51-5.34,5.72c-1.93,2.96-3.18,6.41-3.52,10.12
			c-0.07,0.7-0.1,1.41-0.1,2.12c0,2.7,0.47,5.28,1.35,7.68c1.04,2.87,2.65,5.47,4.7,7.66c0.07,0.08,0.15,0.16,0.23,0.24
			c2.14,2.21,4.72,3.99,7.62,5.19c0,0.01,0.01,0.02,0.01,0.03c6.01,2.32,10.31,8.05,10.51,14.82c0.01,0.17,0.01,0.35,0.01,0.53
			c0,3.78-1.68,7.08-4.12,9.88c-0.72,0.83-1.55,1.62-2.41,2.41c-2.8,2.55-5.95,5.06-6.94,8.66c-0.74,2.72-0.78,5.7-0.05,8.43
			C339.38,293.24,342.7,297.86,350.56,300.33z"/>
		<path class="st0" d="M410.59,189.89c-1.15-0.17-2.32-0.26-3.53-0.26c-4.93,0-9.5,1.48-13.3,3.99c-0.07,0.04-0.13,0.09-0.2,0.13
			c-9.85,5.91-13.22,19.79-8.5,29.9c0.97,2.09,2.25,4.02,3.18,6.13c2.64,6.01,2.17,13.13-0.52,19.11c-2.13,4.73-5.65,8.9-10.2,11.4
			c-4.83,2.65-9.99,2.86-15.28,3.77c-2.4,0.41-4.83,1.27-7.08,2.2c-2.29,0.95-6.8,2.89-8.64,4.62c2.26-3.68,5.53-8.84,4.9-13.23
			c-0.51-3.53-2.22-6.87-4.76-9.37c-2.87-2.83-6.9-4.05-10.16-6.34c-4.83-3.39-8.2-8.79-9.13-14.62
			c-1.28-8.07,2.23-16.52,8.73-21.43c0.02-0.01,0.03-0.03,0.06-0.04c0.21-0.16,0.41-0.33,0.61-0.51c0.76-0.58,1.53-1.15,2.31-1.7
			c0.01,0,0.01-0.01,0.03-0.01c13.15-9.31,28.96-15.11,46.07-16.04c1.59-0.08,3.2-0.13,4.82-0.13
			C397.08,187.47,403.98,188.3,410.59,189.89z"/>
		<g>
			<path class="st0" d="M420.3,275.29c-0.56,0.08-1.12,0.11-1.67,0.12c1.05,2.04,3.31,3.29,5.71,2.96c3.04-0.42,5.17-3.23,4.75-6.27
				c-0.08-0.59-0.26-1.15-0.51-1.67C426.64,272.99,423.73,274.82,420.3,275.29z"/>
		</g>
		<g>
			<path class="st0" d="M409.74,280.49c-0.45,0.06-0.9,0.09-1.34,0.09c0.84,1.63,2.65,2.63,4.57,2.37c2.43-0.34,4.14-2.58,3.8-5.02
				c-0.07-0.48-0.21-0.92-0.4-1.33C414.82,278.65,412.49,280.11,409.74,280.49z"/>
		</g>
		<g>
			<path class="st0" d="M413.53,259.31c-0.82,0.28-1.64,0.5-2.47,0.67c2.18,2.74,5.93,3.95,9.42,2.74c4.43-1.53,6.78-6.37,5.25-10.8
				c-0.3-0.87-0.73-1.65-1.25-2.34C422.34,253.98,418.52,257.58,413.53,259.31z"/>
		</g>
		<g>
			<path class="st0" d="M399.95,269.33c-0.66,0.23-1.32,0.4-1.98,0.54c1.74,2.19,4.74,3.16,7.54,2.19c3.55-1.23,5.42-5.1,4.2-8.64
				c-0.24-0.69-0.58-1.32-1-1.88C407,265.06,403.95,267.94,399.95,269.33z"/>
		</g>
		<path class="st4" d="M466.98,232.66c-0.02-0.03-0.03-0.05-0.04-0.08c-0.22-0.33-0.41-0.68-0.59-1.04
			c-6.05-10.47-14.2-19.58-23.87-26.75c-2.34-1.73-4.77-3.34-7.26-4.83c18.28,17.05,29.71,41.34,29.71,68.3
			c0,51.58-41.81,93.39-93.39,93.39c-0.26,0-0.51-0.01-0.77-0.01c6.19,1.38,12.62,2.11,19.23,2.11c19.66,0,37.83-6.44,52.49-17.33
			c1.04-0.77,2.06-1.56,3.05-2.37c19.89-16.16,32.6-40.82,32.6-68.44C478.13,260.02,474.08,245.37,466.98,232.66z"/>
		<g>
			<path class="st5" d="M351.56,259.49c-0.01-0.32-0.04-0.64-0.07-0.95c-0.01-0.07-0.01-0.15-0.02-0.22c0-0.04-0.01-0.07-0.01-0.11
				c-0.09-0.81-0.23-1.6-0.44-2.37c-0.01-0.03-0.02-0.06-0.03-0.09c-0.09-0.34-0.19-0.67-0.3-1c-0.05-0.14-0.1-0.29-0.16-0.43
				c-0.08-0.22-0.16-0.44-0.26-0.66c-0.13-0.3-0.26-0.59-0.41-0.88c-0.04-0.07-0.07-0.15-0.1-0.22c-0.59-1.16-1.32-2.24-2.17-3.23
				c-0.07-0.08-0.14-0.15-0.21-0.23c-0.21-0.23-0.42-0.46-0.64-0.68c-0.08-0.08-0.17-0.16-0.25-0.24c-0.57-0.55-1.19-1.03-1.84-1.48
				c-11.48,5.85-18.9,15.11-18.9,25.54c0,10.82,7.99,20.39,20.23,26.19c-4.66-2.56-6.91-6.03-7.94-9.03
				c-0.73-2.73-0.7-5.71,0.05-8.43c0.99-3.6,4.14-6.11,6.94-8.66c0.52-0.47,1.02-0.95,1.5-1.44c0.32-0.32,0.63-0.64,0.92-0.97
				c2.44-2.8,4.12-6.1,4.12-9.88C351.57,259.84,351.57,259.66,351.56,259.49z"/>
		</g>
		<g>
			<path class="st0" d="M518.75,293.12c7.54-15.47,11.8-32.83,11.8-51.2c0-64.37-51.97-116.6-116.24-117.04
				c-11.17,2.46-23.52,7.89-31.21,16.8c-5.06,5.87-8.12,13.51-8.12,21.86c0,9.44,3.9,17.97,10.19,24.06
				c1.59-0.08,3.2-0.13,4.82-0.13c7.09,0,13.99,0.83,20.6,2.42c0.31,0.08,0.63,0.16,0.95,0.24c0.01,0,0.03,0.01,0.05,0.01
				c1.48,0.27,2.92,0.68,4.3,1.2c0.15,0.05,0.3,0.09,0.45,0.14c0.88,0.27,1.75,0.56,2.62,0.86c1.32,0.45,2.62,0.94,3.9,1.46
				c7.04,2.83,13.62,6.54,19.63,10.99c9.67,7.17,17.81,16.28,23.87,26.75c-0.82-1.65-1.28-3.5-1.28-5.47c0-5.45,3.74-10.38,9-11.84
				c6.52-1.81,14.49,1.23,19.12,5.25C493.18,219.5,522.45,241.02,518.75,293.12z"/>
			<path class="st6" d="M547.97,221.11c-0.84-7.11-2.35-14.02-4.49-20.65c-5.04-14.13-12.45-27.14-21.74-38.56
				c-11.14-13.68-26.5-24.82-43.18-31.7c-1.52-0.63-3.04-1.22-4.58-1.77c-3.07-1.11-6.18-2.07-9.3-2.88
				c-3.12-0.81-6.26-1.46-9.4-1.94c-1.67-0.26-3.34-0.48-5.01-0.66c-3.35-0.36-6.72-0.57-10.09-0.63
				c-8.43-0.14-16.87,0.66-25.12,2.39c-0.24,0.05-0.49,0.11-0.74,0.17c64.27,0.43,116.24,52.66,116.24,117.04
				c0,18.37-4.25,35.73-11.8,51.2c-0.43,6.02-1.3,12.45-2.7,19.3c1.64-1.62,3.23-3.28,4.76-5c1.65-1.85,3.25-3.76,4.77-5.73
				c3.05-3.93,5.85-8.07,8.36-12.39c3.14-5.41,5.82-11.11,8.02-17.05c4.38-11.88,6.78-24.72,6.78-38.12
				C548.73,229.72,548.47,225.38,547.97,221.11z"/>
		</g>
		<g>
			<path class="st2" d="M433.12,171.29c-2.97-10.95,3.5-22.24,14.45-25.22c0.37-0.1,0.75-0.19,1.12-0.27
				c-4.49-2.45-9.9-3.24-15.22-1.79c-10.95,2.97-17.43,14.26-14.45,25.22c2.87,10.58,13.5,16.98,24.09,14.72
				C438.37,181.36,434.65,176.91,433.12,171.29z"/>
		</g>
		<g>
			<path class="st2" d="M462.95,177.36c-0.12-9.03,7.1-16.45,16.12-16.57c0.31,0,0.61,0,0.92,0.01c-2.98-2.78-6.99-4.45-11.38-4.39
				c-9.03,0.12-16.25,7.54-16.12,16.57c0.12,8.72,7.04,15.75,15.65,16.11C465.01,186.15,463.02,181.99,462.95,177.36z"/>
		</g>
		<path class="st0" d="M336.1,205.9c0,0-14.18,10.69-20.42,22.27c-6.23,11.58-3.8,25.03,7.7,28.2c8.93,2.46,21.89,1.56,20.13,17.3
			c3.57-3,4.69-4.14,11.64-7.41c6.3-9.45,4.08-20.41,4.08-20.41l-23-11.56C336.24,234.3,333.09,208.17,336.1,205.9z"/>
		<path class="st1" d="M313.26,256.21c0,0.97-0.78,1.75-1.75,1.75s-1.75-0.78-1.75-1.75c0-0.97,0.78-1.75,1.75-1.75
			S313.26,255.25,313.26,256.21z"/>
		<g>
			<g>
				<path class="st3" d="M355.52,238.05c-6.69,5.46-16.53,4.46-21.99-2.22l-1.54,1.26c6.14,7.53,17.26,8.65,24.79,2.51
					c7.53-6.14,8.65-17.26,2.51-24.79l-1.54,1.26C363.21,222.75,362.21,232.59,355.52,238.05z"/>
				<path class="st7" d="M355.52,238.05c6.69-5.46,7.68-15.3,2.22-21.99l-24.21,19.77C338.99,242.52,348.84,243.51,355.52,238.05z"
					/>
			</g>
			<g>
				<path class="st1" d="M342.04,228.89c0.43,0.87,0.96,1.7,1.6,2.48c0.58,0.71,1.21,1.34,1.89,1.9c-0.06-0.24-0.11-0.5-0.11-0.76
					c0-1.67,1.35-3.02,3.02-3.02c1.67,0,3.02,1.35,3.02,3.02c0,1.39-0.94,2.55-2.22,2.9c2.73,1.03,5.75,1.17,8.57,0.33
					c4.54-5.63,4.68-13.85-0.07-19.67L342.04,228.89z"/>
				<path class="st7" d="M351.47,232.51c0-1.67-1.35-3.02-3.02-3.02c-1.67,0-3.02,1.35-3.02,3.02c0,0.26,0.04,0.52,0.11,0.76
					c0.34,1.3,1.51,2.26,2.91,2.26c0.28,0,0.55-0.05,0.81-0.12C350.53,235.05,351.47,233.9,351.47,232.51z"/>
			</g>
		</g>
	</g>
	<g>
		<g>
			<path class="st0" d="M249.47,440.89v-47.65h14.72c10.56,0.07,19.47,2.57,19.47,14.65c0,8.65-5.87,14.32-16.5,14.65h-7.46v18.35
				H249.47z M259.7,414.62c5.68-0.26,13.07,1.72,13.07-6.73c0-8.45-7.39-6.47-13.07-6.73V414.62z"/>
			<path class="st0" d="M299.85,393.23v47.65h-9.9v-47.65H299.85z"/>
			<path class="st0" d="M317.9,426.96c0,4.29,0.59,8.32,5.68,8.32c3.43,0,5.15-1.25,6.07-4.29h8.91
				c-0.86,8.18-7.26,10.89-14.98,10.89c-11.35,0-15.91-6.4-15.91-17.49c0-9.97,5.81-17.62,15.91-17.62c6.2,0,11.35,2.11,14.12,7.92
				c0.92,1.85,1.39,3.83,1.65,5.94c0.26,2.05,0.26,4.16,0.26,6.34H317.9z M329.38,420.36c0-3.63-0.99-7-5.81-7
				c-4.55,0-5.54,3.37-5.68,7H329.38z"/>
			<path class="st0" d="M346.63,417.13c0.07-4.16,1.85-6.73,4.49-8.25c2.71-1.58,6.2-2.11,9.77-2.11c6.67,0,14.12,2.44,14.12,12.41
				v18.08c0.07,1.65,0.33,2.64,0.46,3.63h-8.91c-0.2-1.52-0.33-3.04-0.33-4.42h-0.13c-2.24,3.83-5.68,5.41-10.16,5.41
				c-6.2,0-10.82-3.56-10.82-10.03c0-2.31,1.06-7.92,7.06-10.49c3.96-1.72,8.98-1.91,12.94-1.78v-3.1c0-1.39-1.06-4.09-4.55-4.09
				c-3.43,0-4.55,3.23-4.42,4.75H346.63z M354.62,430.52c0,2.77,2.05,4.75,4.82,4.75c5.48,0,5.68-6.07,5.68-9.97
				C361.68,425.24,354.62,425.18,354.62,430.52z"/>
			<path class="st0" d="M399.56,416.6c-0.13-2.24-2.24-3.23-4.49-3.23c-2.71,0-3.96,0.79-3.96,2.97c0,5.21,18.94,2.24,18.94,14.65
				c0,7.26-8.84,10.89-14.98,10.89c-7.72,0-14.45-3.04-14.59-10.63h9.17c0.2,2.57,2.51,4.03,5.41,4.03c2.71,0,4.75-1.12,4.75-3.7
				c0-2.64-4.75-3.76-6.73-4.22c-6.34-1.52-12.21-2.9-12.21-10.63c0-6.93,8.38-9.97,14.19-9.97c7,0,12.94,2.51,13.4,9.83H399.56z"/>
			<path class="st0" d="M417.03,417.13c0.07-4.16,1.85-6.73,4.49-8.25c2.71-1.58,6.2-2.11,9.77-2.11c6.67,0,14.12,2.44,14.12,12.41
				v18.08c0.07,1.65,0.33,2.64,0.46,3.63h-8.91c-0.2-1.52-0.33-3.04-0.33-4.42h-0.13c-2.24,3.83-5.68,5.41-10.16,5.41
				c-6.2,0-10.82-3.56-10.82-10.03c0-2.31,1.06-7.92,7.06-10.49c3.96-1.72,8.98-1.91,12.94-1.78v-3.1c0-1.39-1.06-4.09-4.55-4.09
				c-3.43,0-4.55,3.23-4.42,4.75H417.03z M425.02,430.52c0,2.77,2.05,4.75,4.82,4.75c5.48,0,5.68-6.07,5.68-9.97
				C432.08,425.24,425.02,425.18,425.02,430.52z"/>
			<path class="st0" d="M463.69,411.58l0.13,0.2c2.05-3.04,5.15-5.02,10.16-5.02c3.3,0,9.7,2.44,10.89,7.26
				c0.53,2.05,0.66,4.16,0.66,5.28v21.58h-9.9v-19.93c-0.07-3.56-1.06-7.59-5.94-7.59c-3.1,0-5.81,2.77-5.94,7.59v19.93h-9.9v-33.13
				h9.83V411.58z"/>
			<path class="st0" d="M497.55,407.75v-6.53l9.9-3.56v10.1h7.46v6.6h-7.46v15.38c0,4.36,0.66,5.54,4.09,5.54
				c1.06,0,2.11-0.13,3.17-0.2v5.81c-1.12,0.53-6.4,0.99-7.79,0.99c-7.72,0-9.37-4.03-9.37-11.22v-16.3h-6.67v-6.6H497.55z"/>
			<path class="st0" d="M530.55,426.96c0,4.29,0.59,8.32,5.68,8.32c3.43,0,5.15-1.25,6.07-4.29h8.91
				c-0.86,8.18-7.26,10.89-14.98,10.89c-11.35,0-15.91-6.4-15.91-17.49c0-9.97,5.81-17.62,15.91-17.62c6.2,0,11.35,2.11,14.12,7.92
				c0.92,1.85,1.39,3.83,1.65,5.94c0.26,2.05,0.26,4.16,0.26,6.34H530.55z M542.03,420.36c0-3.63-0.99-7-5.81-7
				c-4.55,0-5.54,3.37-5.68,7H542.03z"/>
		</g>
		<path class="st0" d="M579.82,416.32c3.35-1.2,8.94-3.59,12.94-13.58c-2.8,1.33-7.97,2.39-14.16,4.26
			c-6.29,1.9-9.47,9.29-10.42,11.88V408h-9.58v32.88h9.58v-7.48c0,0,0-5.61,8.52-8.65c5.54-1.98,8.98-4.58,12.17-11.11
			C588.88,413.65,583.26,416.99,579.82,416.32z"/>
	</g>
</g>
<g>
</g>
<g>
</g>
<g>
</g>
<g>
</g>
<g>
</g>
<g>
</g>
</svg>
